<svg width="154" height="26" viewBox="0 0 154 26" fill="none" xmlns="http://www.w3.org/2000/svg">
<path d="M36.9238 18.293V21H28.5986V18.293H36.9238ZM29.791 5.35938V21H26.2891V5.35938H29.791ZM35.8496 11.6543V14.2754H28.5986V11.6543H35.8496ZM36.9346 5.35938V8.07715H28.5986V5.35938H36.9346ZM42.2627 18.626L44.6904 9.37695H48.2139L44.3574 21H42.2412L42.2627 18.626ZM40.6943 9.37695L43.1113 18.6367L43.1328 21H41.0166L37.1602 9.37695H40.6943ZM54.7773 21.2148C53.8535 21.2148 53.0264 21.068 52.2959 20.7744C51.5654 20.4808 50.946 20.0762 50.4375 19.5605C49.9362 19.0378 49.5531 18.4362 49.2881 17.7559C49.0231 17.0755 48.8906 16.3486 48.8906 15.5752V15.167C48.8906 14.3005 49.0124 13.502 49.2559 12.7715C49.4993 12.041 49.8538 11.4072 50.3193 10.8701C50.792 10.3258 51.3721 9.9069 52.0596 9.61328C52.7471 9.3125 53.5312 9.16211 54.4121 9.16211C55.2357 9.16211 55.9697 9.29818 56.6143 9.57031C57.2588 9.83529 57.8031 10.2184 58.2471 10.7197C58.6911 11.2139 59.0277 11.8118 59.2568 12.5137C59.4932 13.2083 59.6113 13.9889 59.6113 14.8555V16.2305H50.2441V14.0713H56.3242V13.8135C56.3242 13.4053 56.249 13.0472 56.0986 12.7393C55.9554 12.4313 55.7406 12.195 55.4541 12.0303C55.1748 11.8584 54.8203 11.7725 54.3906 11.7725C53.9824 11.7725 53.6423 11.8584 53.3701 12.0303C53.098 12.2021 52.8796 12.4456 52.7148 12.7607C52.5573 13.0687 52.4427 13.4303 52.3711 13.8457C52.2995 14.2539 52.2637 14.6943 52.2637 15.167V15.5752C52.2637 16.0264 52.3245 16.4382 52.4463 16.8105C52.568 17.1829 52.7471 17.5016 52.9834 17.7666C53.2197 18.0316 53.5062 18.2393 53.8428 18.3896C54.1794 18.54 54.5625 18.6152 54.9922 18.6152C55.5221 18.6152 56.027 18.515 56.5068 18.3145C56.9867 18.1068 57.402 17.7845 57.7529 17.3477L59.3213 19.1416C59.085 19.4854 58.752 19.8184 58.3223 20.1406C57.8997 20.4557 57.3913 20.7135 56.7969 20.9141C56.2025 21.1146 55.5293 21.2148 54.7773 21.2148ZM64.5312 11.8584V21H61.1689V9.37695H64.3271L64.5312 11.8584ZM64.0908 14.7803L63.2529 14.8018C63.2529 13.9281 63.3604 13.1439 63.5752 12.4492C63.79 11.7546 64.0944 11.1637 64.4883 10.6768C64.8893 10.1826 65.3656 9.80664 65.917 9.54883C66.4756 9.29102 67.0915 9.16211 67.7646 9.16211C68.3089 9.16211 68.8066 9.24089 69.2578 9.39844C69.709 9.55599 70.0957 9.81022 70.418 10.1611C70.7474 10.5049 70.998 10.9632 71.1699 11.5361C71.3418 12.1019 71.4277 12.8001 71.4277 13.6309V21H68.0547V13.6201C68.0547 13.1331 67.9867 12.7572 67.8506 12.4922C67.7145 12.2272 67.514 12.041 67.249 11.9336C66.9912 11.8262 66.6761 11.7725 66.3037 11.7725C65.9098 11.7725 65.5732 11.8512 65.2939 12.0088C65.0146 12.1592 64.7855 12.3704 64.6064 12.6426C64.4274 12.9147 64.2949 13.2334 64.209 13.5986C64.1302 13.9639 64.0908 14.3577 64.0908 14.7803ZM79.5273 9.37695V11.7295H72.6309V9.37695H79.5273ZM74.21 6.49805H77.5723V17.3584C77.5723 17.6807 77.6117 17.9277 77.6904 18.0996C77.7692 18.2715 77.8981 18.3932 78.0771 18.4648C78.2562 18.5293 78.4854 18.5615 78.7646 18.5615C78.9652 18.5615 79.137 18.5544 79.2803 18.54C79.4235 18.5257 79.556 18.5078 79.6777 18.4863V20.9141C79.3913 21.0072 79.0869 21.0788 78.7646 21.1289C78.4424 21.1862 78.0915 21.2148 77.7119 21.2148C76.9886 21.2148 76.362 21.0967 75.832 20.8604C75.3092 20.624 74.9082 20.2516 74.6289 19.7432C74.3496 19.2275 74.21 18.5579 74.21 17.7344V6.49805Z" fill="#1C1C1C"/>
<path d="M87.3262 14.6299H82.8682V13.502H87.3262C88.2572 13.502 89.0127 13.3516 89.5928 13.0508C90.18 12.7428 90.6061 12.3275 90.8711 11.8047C91.1432 11.2819 91.2793 10.6947 91.2793 10.043C91.2793 9.4056 91.1432 8.81836 90.8711 8.28125C90.6061 7.74414 90.18 7.31445 89.5928 6.99219C89.0127 6.66276 88.2572 6.49805 87.3262 6.49805H83.3301V21H82.0088V5.35938H87.3262C88.472 5.35938 89.4352 5.55632 90.2158 5.9502C91.0036 6.34408 91.598 6.89193 91.999 7.59375C92.4001 8.29557 92.6006 9.10482 92.6006 10.0215C92.6006 10.9811 92.4001 11.8083 91.999 12.5029C91.598 13.1904 91.0072 13.7168 90.2266 14.082C89.446 14.4473 88.4792 14.6299 87.3262 14.6299ZM96.6934 4.5V21H95.415V4.5H96.6934ZM107.274 18.916V12.9219C107.274 12.3704 107.16 11.8942 106.931 11.4932C106.701 11.0921 106.365 10.7842 105.921 10.5693C105.477 10.3545 104.929 10.2471 104.277 10.2471C103.676 10.2471 103.139 10.3545 102.666 10.5693C102.201 10.777 101.832 11.0599 101.56 11.418C101.295 11.7689 101.162 12.1592 101.162 12.5889L99.873 12.5781C99.873 12.1413 99.9805 11.7188 100.195 11.3105C100.41 10.9023 100.715 10.5371 101.108 10.2148C101.502 9.89258 101.971 9.63835 102.516 9.45215C103.067 9.25879 103.672 9.16211 104.331 9.16211C105.162 9.16211 105.892 9.30176 106.522 9.58105C107.16 9.86035 107.658 10.2793 108.016 10.8379C108.374 11.3965 108.553 12.0983 108.553 12.9434V18.5615C108.553 18.9626 108.581 19.3779 108.639 19.8076C108.703 20.2373 108.793 20.5918 108.907 20.8711V21H107.543C107.457 20.7422 107.389 20.4199 107.339 20.0332C107.296 19.6393 107.274 19.2669 107.274 18.916ZM107.575 14.2324L107.597 15.2207H105.072C104.413 15.2207 103.823 15.2816 103.3 15.4033C102.784 15.5179 102.347 15.6898 101.989 15.9189C101.631 16.141 101.355 16.4095 101.162 16.7246C100.976 17.0397 100.883 17.3978 100.883 17.7988C100.883 18.2142 100.987 18.5938 101.194 18.9375C101.409 19.2812 101.71 19.557 102.097 19.7646C102.491 19.9652 102.956 20.0654 103.493 20.0654C104.209 20.0654 104.84 19.9329 105.384 19.668C105.935 19.403 106.39 19.0557 106.748 18.626C107.106 18.1963 107.346 17.7272 107.468 17.2188L108.026 17.96C107.933 18.318 107.761 18.6868 107.511 19.0664C107.267 19.4388 106.949 19.7897 106.555 20.1191C106.161 20.4414 105.695 20.7064 105.158 20.9141C104.628 21.1146 104.027 21.2148 103.354 21.2148C102.594 21.2148 101.932 21.0716 101.366 20.7852C100.808 20.4987 100.371 20.1084 100.056 19.6143C99.7477 19.113 99.5938 18.5472 99.5938 17.917C99.5938 17.3441 99.7155 16.832 99.959 16.3809C100.202 15.9225 100.553 15.5358 101.012 15.2207C101.477 14.8984 102.036 14.6549 102.688 14.4902C103.346 14.3184 104.084 14.2324 104.9 14.2324H107.575ZM113.279 11.8584V21H112.001V9.37695H113.226L113.279 11.8584ZM112.989 14.4688L112.42 14.1465C112.463 13.459 112.603 12.8145 112.839 12.2129C113.075 11.6113 113.394 11.0814 113.795 10.623C114.203 10.1647 114.679 9.80664 115.224 9.54883C115.775 9.29102 116.384 9.16211 117.05 9.16211C117.63 9.16211 118.149 9.24089 118.607 9.39844C119.066 9.55599 119.456 9.80664 119.778 10.1504C120.101 10.4941 120.344 10.9346 120.509 11.4717C120.681 12.0088 120.767 12.6641 120.767 13.4375V21H119.478V13.4268C119.478 12.6247 119.367 11.998 119.145 11.5469C118.923 11.0885 118.607 10.7627 118.199 10.5693C117.791 10.376 117.308 10.2793 116.749 10.2793C116.133 10.2793 115.592 10.4154 115.127 10.6875C114.669 10.9525 114.282 11.2998 113.967 11.7295C113.659 12.152 113.423 12.6068 113.258 13.0938C113.093 13.5736 113.004 14.0319 112.989 14.4688ZM125.375 11.8584V21H124.097V9.37695H125.321L125.375 11.8584ZM125.085 14.4688L124.516 14.1465C124.559 13.459 124.698 12.8145 124.935 12.2129C125.171 11.6113 125.49 11.0814 125.891 10.623C126.299 10.1647 126.775 9.80664 127.319 9.54883C127.871 9.29102 128.479 9.16211 129.146 9.16211C129.726 9.16211 130.245 9.24089 130.703 9.39844C131.161 9.55599 131.552 9.80664 131.874 10.1504C132.196 10.4941 132.44 10.9346 132.604 11.4717C132.776 12.0088 132.862 12.6641 132.862 13.4375V21H131.573V13.4268C131.573 12.6247 131.462 11.998 131.24 11.5469C131.018 11.0885 130.703 10.7627 130.295 10.5693C129.887 10.376 129.403 10.2793 128.845 10.2793C128.229 10.2793 127.688 10.4154 127.223 10.6875C126.764 10.9525 126.378 11.2998 126.062 11.7295C125.755 12.152 125.518 12.6068 125.354 13.0938C125.189 13.5736 125.099 14.0319 125.085 14.4688ZM140.683 21.2148C139.924 21.2148 139.225 21.0752 138.588 20.7959C137.958 20.5166 137.406 20.1227 136.934 19.6143C136.468 19.1058 136.106 18.5042 135.849 17.8096C135.598 17.1077 135.473 16.3415 135.473 15.5107V15.0488C135.473 14.1536 135.605 13.3444 135.87 12.6211C136.135 11.8978 136.5 11.2783 136.966 10.7627C137.431 10.2471 137.961 9.85319 138.556 9.58105C139.157 9.30176 139.787 9.16211 140.446 9.16211C141.184 9.16211 141.839 9.2946 142.412 9.55957C142.985 9.81738 143.465 10.1862 143.852 10.666C144.245 11.1387 144.543 11.7008 144.743 12.3525C144.944 12.9971 145.044 13.7096 145.044 14.4902V15.2744H136.246V14.1787H143.766V14.0283C143.751 13.3766 143.619 12.7679 143.368 12.2021C143.125 11.6292 142.759 11.1637 142.272 10.8057C141.785 10.4476 141.177 10.2686 140.446 10.2686C139.902 10.2686 139.401 10.3831 138.942 10.6123C138.491 10.8415 138.101 11.1709 137.771 11.6006C137.449 12.0231 137.199 12.528 137.02 13.1152C136.848 13.6953 136.762 14.3398 136.762 15.0488V15.5107C136.762 16.1553 136.855 16.7568 137.041 17.3154C137.234 17.8669 137.507 18.3538 137.857 18.7764C138.215 19.1989 138.638 19.5283 139.125 19.7646C139.612 20.001 140.149 20.1191 140.736 20.1191C141.424 20.1191 142.033 19.9938 142.562 19.7432C143.092 19.4854 143.569 19.0807 143.991 18.5293L144.797 19.1523C144.546 19.5247 144.231 19.8685 143.852 20.1836C143.479 20.4987 143.032 20.7493 142.509 20.9355C141.986 21.1217 141.377 21.2148 140.683 21.2148ZM148.857 11.2998V21H147.579V9.37695H148.825L148.857 11.2998ZM152.972 9.29102L152.939 10.4727C152.796 10.4512 152.657 10.4333 152.521 10.4189C152.384 10.4046 152.238 10.3975 152.08 10.3975C151.521 10.3975 151.031 10.5013 150.608 10.709C150.193 10.9095 149.842 11.1924 149.556 11.5576C149.269 11.9157 149.051 12.3382 148.9 12.8252C148.75 13.305 148.664 13.8206 148.643 14.3721L148.17 14.5547C148.17 13.7956 148.249 13.0902 148.406 12.4385C148.564 11.7868 148.804 11.2174 149.126 10.7305C149.455 10.2363 149.867 9.85319 150.361 9.58105C150.863 9.30176 151.45 9.16211 152.123 9.16211C152.288 9.16211 152.449 9.17643 152.606 9.20508C152.771 9.22656 152.893 9.25521 152.972 9.29102Z" fill="#1E90FF"/>
<path d="M18.7344 8.625C18.9922 8.625 19.25 8.41016 19.25 8.10938V6.5625C19.25 5.44531 18.3047 4.5 17.1875 4.5H15.125V2.26562C15.125 2.00781 14.8672 1.75 14.6094 1.75H12.8906C12.5898 1.75 12.375 2.00781 12.375 2.26562V4.5H6.875V2.26562C6.875 2.00781 6.61719 1.75 6.35938 1.75H4.64062C4.33984 1.75 4.125 2.00781 4.125 2.26562V4.5H2.0625C0.902344 4.5 0 5.44531 0 6.5625V8.10938C0 8.41016 0.214844 8.625 0.515625 8.625H18.7344ZM0.515625 10C0.214844 10 0 10.2578 0 10.5156V21.6875C0 22.8477 0.902344 23.75 2.0625 23.75H17.1875C18.3047 23.75 19.25 22.8477 19.25 21.6875V10.5156C19.25 10.2578 18.9922 10 18.7344 10H0.515625ZM14.8242 14.125C14.9961 14.3398 14.9961 14.6836 14.8242 14.8555L8.67969 20.957C8.46484 21.1719 8.12109 21.1719 7.94922 20.957L4.38281 17.3906C4.21094 17.1758 4.21094 16.875 4.38281 16.6602L5.62891 15.457C5.80078 15.2422 6.14453 15.2422 6.35938 15.457L8.33594 17.4336L12.8906 12.9219C13.0625 12.707 13.4062 12.707 13.6211 12.9219L14.8242 14.125Z" fill="#1E90FF"/>
</svg>
